<svg data-v-fde0c5aa="" xmlns="http://www.w3.org/2000/svg" viewBox="0 0 300 300" class="iconLeft"><!----><defs data-v-fde0c5aa=""><!----></defs><rect data-v-fde0c5aa="" fill="transparent" x="0" y="0" width="300px" height="300px" class="logo-background-square"></rect><defs data-v-fde0c5aa=""><!----></defs><g data-v-fde0c5aa="" id="81a1af20-0fae-4a42-b736-a84d037fb0e8" fill="#000000" transform="matrix(2.1145255020984703,0,0,2.1145255020984703,83.0564982811077,127.02568090367659)"><path d="M4.98 14.52C7.53 14.52 9.20 12.75 9.20 9.46C9.20 6.17 7.53 4.41 4.98 4.41C2.44 4.41 0.77 6.17 0.77 9.46C0.77 12.75 2.44 14.52 4.98 14.52ZM4.98 13.10C3.47 13.10 2.46 12.01 2.46 10.23L2.46 8.69C2.46 6.92 3.47 5.82 4.98 5.82C6.50 5.82 7.50 6.92 7.50 8.69L7.50 10.23C7.50 12.01 6.50 13.10 4.98 13.10ZM12.59 14.35L12.59 9.48C12.59 8.62 13.37 8.22 14.17 8.22C15.11 8.22 15.54 8.79 15.54 9.93L15.54 14.35L17.07 14.35L17.07 9.73C17.07 7.94 16.18 6.90 14.70 6.90C13.58 6.90 12.96 7.49 12.66 8.27L12.59 8.27L12.59 7.07L11.06 7.07L11.06 14.35ZM22.04 14.52C23.39 14.52 24.46 13.93 25.00 13.05L24.11 12.17C23.69 12.84 23.09 13.26 22.19 13.26C20.96 13.26 20.27 12.46 20.27 11.34L20.27 11.10L25.27 11.10L25.27 10.53C25.27 8.51 24.18 6.90 22.04 6.90C19.96 6.90 18.69 8.39 18.69 10.71C18.69 13.03 19.96 14.52 22.04 14.52ZM22.04 8.09C23.04 8.09 23.66 8.83 23.66 9.95L23.66 10.09L20.27 10.09L20.27 10.00C20.27 8.88 20.99 8.09 22.04 8.09ZM32.97 14.35L34.87 14.35L31.11 8.69L34.59 4.58L32.75 4.58L30.11 7.76L28.71 9.53L28.66 9.53L28.66 4.58L27.08 4.58L27.08 14.35L28.66 14.35L28.66 11.33L30.00 9.79ZM38.71 14.52C40.07 14.52 41.13 13.93 41.68 13.05L40.78 12.17C40.36 12.84 39.76 13.26 38.86 13.26C37.63 13.26 36.95 12.46 36.95 11.34L36.95 11.10L41.94 11.10L41.94 10.53C41.94 8.51 40.85 6.90 38.71 6.90C36.64 6.90 35.36 8.39 35.36 10.71C35.36 13.03 36.64 14.52 38.71 14.52ZM38.71 8.09C39.72 8.09 40.33 8.83 40.33 9.95L40.33 10.09L36.95 10.09L36.95 10.00C36.95 8.88 37.66 8.09 38.71 8.09ZM46.56 11.35L46.10 12.94L46.03 12.94L45.61 11.35L44.16 7.07L42.63 7.07L45.28 14.67L44.86 15.90L43.62 15.90L43.62 17.15L44.51 17.15C45.64 17.15 46.07 16.77 46.42 15.79L49.49 7.07L48.02 7.07ZM54.17 14.35L58.93 14.35C60.37 14.35 61.45 13.12 61.45 11.54C61.45 9.90 60.20 9.28 59.40 9.25L59.40 9.17C60.20 9.10 61.10 8.57 61.10 7.10C61.10 5.57 60.10 4.58 58.49 4.58L54.17 4.58ZM55.75 10.02L58.46 10.02C59.28 10.02 59.78 10.47 59.78 11.27L59.78 11.75C59.78 12.54 59.28 12.99 58.46 12.99L55.75 12.99ZM55.75 5.94L58.20 5.94C58.97 5.94 59.43 6.36 59.43 7.10L59.43 7.55C59.43 8.29 58.97 8.71 58.20 8.71L55.75 8.71ZM69.47 14.35L69.47 13.10L68.70 13.10L68.70 9.45C68.70 7.83 67.65 6.90 65.77 6.90C64.36 6.90 63.50 7.50 63.03 8.32L63.94 9.14C64.30 8.57 64.82 8.15 65.67 8.15C66.70 8.15 67.17 8.67 67.17 9.55L67.17 10.16L65.86 10.16C63.83 10.16 62.75 10.91 62.75 12.35C62.75 13.66 63.60 14.52 65.10 14.52C66.16 14.52 66.95 14.04 67.23 13.13L67.30 13.13C67.40 13.85 67.82 14.35 68.61 14.35ZM65.53 13.36C64.78 13.36 64.30 13.02 64.30 12.38L64.30 12.12C64.30 11.49 64.82 11.14 65.88 11.14L67.17 11.14L67.17 12.19C67.17 12.91 66.47 13.36 65.53 13.36ZM77.35 15.04C77.35 13.78 76.59 13.02 74.80 13.02L73.01 13.02C72.37 13.02 71.99 12.87 71.99 12.47C71.99 12.11 72.32 11.87 72.69 11.75C72.95 11.82 73.29 11.86 73.64 11.86C75.49 11.86 76.55 10.86 76.55 9.39C76.55 8.55 76.19 7.85 75.53 7.42L75.53 7.13L77.01 7.13L77.01 5.89L75.89 5.89C75.25 5.89 74.94 6.29 74.94 6.93L74.94 7.13C74.56 6.97 74.12 6.90 73.63 6.90C71.78 6.90 70.73 7.91 70.73 9.39C70.73 10.37 71.20 11.14 72.06 11.55L72.06 11.61C71.36 11.77 70.77 12.14 70.77 12.89C70.77 13.44 71.06 13.85 71.60 14.01L71.60 14.17C70.83 14.34 70.35 14.77 70.35 15.57C70.35 16.67 71.27 17.32 73.65 17.32C76.27 17.32 77.35 16.55 77.35 15.04ZM75.92 15.20C75.92 15.88 75.33 16.21 74.14 16.21L73.19 16.21C72.06 16.21 71.62 15.81 71.62 15.22C71.62 14.87 71.79 14.57 72.13 14.38L74.59 14.38C75.59 14.38 75.92 14.70 75.92 15.20ZM73.64 10.75C72.74 10.75 72.23 10.35 72.23 9.52L72.23 9.24C72.23 8.41 72.74 8.01 73.64 8.01C74.54 8.01 75.05 8.41 75.05 9.24L75.05 9.52C75.05 10.35 74.54 10.75 73.64 10.75ZM80.79 14.52C82.54 14.52 83.68 13.58 83.68 12.18C83.68 11.00 82.96 10.30 81.37 10.07L80.70 9.98C79.93 9.86 79.58 9.60 79.58 9.04C79.58 8.50 79.97 8.13 80.81 8.13C81.59 8.13 82.21 8.51 82.59 8.96L83.52 8.06C82.87 7.34 82.12 6.90 80.81 6.90C79.21 6.90 78.11 7.73 78.11 9.14C78.11 10.49 79.02 11.13 80.50 11.31L81.17 11.40C81.93 11.49 82.21 11.84 82.21 12.31C82.21 12.92 81.76 13.29 80.88 13.29C80.01 13.29 79.35 12.89 78.82 12.25L77.84 13.15C78.53 14 79.42 14.52 80.79 14.52Z"></path></g><defs data-v-fde0c5aa=""><linearGradient data-v-fde0c5aa="" gradientTransform="rotate(25)" id="e9b6c678-6a5b-45de-a963-28bddbcdde55" x1="0%" y1="0%" x2="100%" y2="0%"><stop data-v-fde0c5aa="" offset="0%" stop-color="#920DE9" stop-opacity="1"></stop><stop data-v-fde0c5aa="" offset="100%" stop-color="#1536F1" stop-opacity="1"></stop></linearGradient></defs><g data-v-fde0c5aa="" id="0bb35086-4740-47a6-942e-798476e84290" stroke="none" fill="url(#e9b6c678-6a5b-45de-a963-28bddbcdde55)" transform="matrix(0.4186333553022806,0,0,0.4186333553022806,34.564883231152386,129.10747371261752)"><g clip-rule="evenodd"><path d="M12.983 10.59l17.018 88.223-5.872-59.049 29.021-1.892-.054-9.883L64.549 1 53.622 18.977z"></path><path d="M59.389 54.548l5.16-53.541-8.74 39.716-19.612 1.045 1.57 20.462-7.766 36.583 12.057-39.899z"></path><path d="M62.8 67.182l.549-10.453-15.979 3.755-.032 11.797-17.337 26.532 21.68-27.616zM65.711 62.394l14.841-4.731 1.509-12.532-15.899 2.095zM72.07 44.502l10.988-1.417 1.581-10.278-8.079-.373L64.549 1l8.43 30.967z"></path><path d="M87.413 31.294l1.256-9.506-9.544-2.694L64.549 1l14.483 22.437-.422 7z"></path></g></g><!----></svg>